<svg xmlns="http://www.w3.org/2000/svg" version="1.1" xmlns:xlink="http://www.w3.org/1999/xlink" xmlns:svgjs="http://svgjs.dev/svgjs" width="2000" height="1500" viewBox="0 0 2000 1500"><rect width="2000" height="1500" fill="#12175a"></rect><g transform="matrix(0.75,0,0,0.75,249.090909090909,282.7536437246963)"><svg viewBox="0 0 396 247" data-background-color="#12175a" preserveAspectRatio="xMidYMid meet" height="1247" width="2000" xmlns="http://www.w3.org/2000/svg" xmlns:xlink="http://www.w3.org/1999/xlink"><g id="tight-bounds" transform="matrix(1,0,0,1,0.2400000000000091,-0.09999999999999432)"><svg viewBox="0 0 395.52 247.2" height="247.2" width="395.52"><g><svg></svg></g><g><svg viewBox="0 0 395.52 247.2" height="247.2" width="395.52"><mask id="7b442556-e310-4e22-a5d8-1052a7237ac6"><rect width="395.52" height="247.2" fill="white"></rect><g transform="matrix(1,0,0,1,0,98.00889018862406)" id="clone"><svg viewBox="0 0 395.52 51.18221962275185" height="51.18221962275185" width="395.52"><g><svg viewBox="0 0 395.52 51.18221962275185" height="51.18221962275185" width="395.52"><g><svg viewBox="0 0 395.52 51.18221962275185" height="51.18221962275185" width="395.52"><g><svg viewBox="0 0 395.52 51.18221962275185" height="51.18221962275185" width="395.52"><g id="SvgjsG3554"><svg viewBox="0 0 395.52 51.18221962275185" height="51.18221962275185" width="395.52" id="SvgjsSvg3553"><g><svg viewBox="0 0 395.52 51.18221962275185" height="51.18221962275185" width="395.52"><g transform="matrix(1,0,0,1,0,0)"><svg width="395.52" viewBox="-1.5 -41.7 342.92 45.25" height="51.18221962275185" data-palette-color="#ffffff"><path d="M16.05 0.55L16.05 0.55Q9.5 0.55 5.5-3.85 1.5-8.25 1.5-15.5L1.5-15.5Q1.5-23.75 6.5-29.4 11.5-35.05 18.8-35.05L18.8-35.05Q21.7-35.05 24.18-34.52 26.65-34 27.7-33.45L27.7-33.45 28.7-32.9 25.8-25.95Q24.3-26.95 21.75-27.83 19.2-28.7 17.25-28.7L17.25-28.7Q13.2-28.7 10.75-25.85 8.3-23 8.3-18.3L8.3-18.3Q8.3-11.95 10.63-8.4 12.95-4.85 17.1-4.85L17.1-4.85Q19.8-4.85 22.2-5.6L22.2-5.6 22.2-13.35 15.75-13.35 16.25-18.4 28.25-18.4 27.8-10.25 28.15-1.6Q20.8 0.55 16.05 0.55ZM39.7 0Q36.75 0 34.87-1.88 33-3.75 33-6.93 33-10.1 35.9-12.43 38.8-14.75 42.95-14.75L42.95-14.75 46.35-14.75 46.35-15.6Q46.35-18.05 45.35-18.95 44.35-19.85 41.6-19.85L41.6-19.85Q40.45-19.85 38.87-19.38 37.3-18.9 35.35-17.9L35.35-17.9 33.9-21.85Q36.05-23.35 39.12-24.55 42.2-25.75 44.2-25.75L44.2-25.75Q52.05-25.75 52.05-18.15L52.05-18.15 52.05-8.35Q52.05-5.55 53.8-2.1L53.8-2.1 48.5 0.15Q47.25-2.25 46.65-4.15L46.65-4.15Q43.9 0 39.7 0L39.7 0ZM41.8-5.1L41.8-5.1Q43.8-5.1 46.35-7.15L46.35-7.15 46.35-10.5Q43.7-11.1 42.05-11.1L42.05-11.1Q38.9-11.1 38.9-8.3L38.9-8.3Q38.9-6.85 39.7-5.98 40.5-5.1 41.8-5.1ZM71.4-25.25L71.4-25.25Q74.75-25.25 76.84-22.35 78.95-19.45 78.95-14.9L78.95-14.9Q78.95-8.35 75.52-4.17 72.09 0 66.65 0L66.65 0Q64.15 0 58.25-0.8L58.25-0.8 58.75-12.15 58.15-37.45 65-38.7 64.34-25.8 64.34-20.4Q64.9-21.2 65.7-22.1 66.5-23 68.2-24.13 69.9-25.25 71.4-25.25ZM69.45-18.75L69.45-18.75Q67.15-18.75 64.34-17.35L64.34-17.35 64.34-13 64.65-5.65Q66.75-5.4 68.59-5.4L68.59-5.4Q73.4-5.4 73.4-12.08 73.4-18.75 69.45-18.75ZM82.54-24.15L82.54-24.15 88.59-25.45Q89.04-21.6 89.19-18.15L89.19-18.15Q93.74-25.2 97.74-25.2L97.74-25.2 97.19-17.4Q94.29-17.4 92.62-16.88 90.94-16.35 89.19-14.8L89.19-14.8 89.19-13 89.74-1.25 83.04 0 83.64-12.15Q83.44-18.85 82.54-24.15ZM100.89-24.2L107.59-25.45 106.99-13 107.54-1.25 100.84 0 101.44-12.15 100.89-24.2ZM100.54-32.77Q100.54-34.45 101.84-35.77 103.14-37.1 104.84-37.1 106.54-37.1 107.44-36.18 108.34-35.25 108.34-33.4 108.34-31.55 107.07-30.23 105.79-28.9 104.12-28.9 102.44-28.9 101.49-30 100.54-31.1 100.54-32.77ZM122.09-5.1L122.09-5.1Q123.54-5.1 125.14-5.85 126.74-6.6 127.64-7.35L127.64-7.35 128.54-8.1 130.84-5.3Q130.34-4.45 129.29-3.35 128.24-2.25 127.16-1.48 126.09-0.7 124.31-0.08 122.54 0.55 120.64 0.55L120.64 0.55Q116.59 0.55 114.04-2.53 111.49-5.6 111.49-10.45L111.49-10.45Q111.49-16.55 115.04-21.15 118.59-25.75 123.34-25.75L123.34-25.75Q126.99-25.75 129.01-23.7 131.04-21.65 131.04-17.95L131.04-17.95Q131.04-15.75 130.29-12.95L130.29-12.95 129.29-11.9 116.79-10.75Q117.64-5.1 122.09-5.1ZM122.09-20.6L122.09-20.6Q119.89-20.6 118.39-18.82 116.89-17.05 116.64-14.3L116.64-14.3 125.14-15.35Q125.29-16.5 125.29-17.25L125.29-17.25Q125.29-20.6 122.09-20.6ZM135.39-37.45L142.24-38.7 141.59-13 142.14-1.25 135.39 0 135.99-12.15 135.39-37.45ZM156.83-34.5L167.68-34.5Q172.48-34.5 175.28-32.33 178.08-30.15 178.08-26.5L178.08-26.5Q178.08-20.65 173.28-18.35L173.28-18.35Q179.78-16.1 179.78-10.05L179.78-10.05Q179.78-5.5 175.88-2.48 171.98 0.55 166.08 0.55L166.08 0.55Q162.98 0.55 156.83 0L156.83 0 157.43-12.15 156.83-34.5ZM167.03-14.85L167.03-14.85 162.98-14.85 162.93-13 163.28-4.85Q166.18-4.6 167.73-4.6L167.73-4.6Q170.38-4.6 171.86-5.93 173.33-7.25 173.33-9.8 173.33-12.35 171.83-13.6 170.33-14.85 167.03-14.85ZM165.88-29.45L165.88-29.45 163.43-29.45 163.13-19.7 166.38-19.7Q168.93-19.7 170.28-21.08 171.63-22.45 171.63-25L171.63-25Q171.63-29.45 165.88-29.45ZM190.73 0L190.73 0Q188.03 0 186.35-1.78 184.68-3.55 184.68-6.45L184.68-6.45 184.98-12.2 184.43-24.2 191.13-25.45 190.48-10.25Q190.48-8.1 191.25-7.1 192.03-6.1 193.73-6.1 195.43-6.1 198.43-7.8L198.43-7.8 198.43-10.8 197.88-23.95 204.63-25.2 204.03-12.7 204.08-8.6Q204.08-5.4 205.73-2.15L205.73-2.15 200.53 0.15Q198.88-3.1 198.53-5.05L198.53-5.05Q194.03 0 190.73 0ZM209.68-24.15L209.68-24.15 215.73-25.45Q216.18-21.6 216.33-18.15L216.33-18.15Q220.88-25.2 224.88-25.2L224.88-25.2 224.33-17.4Q221.43-17.4 219.75-16.88 218.08-16.35 216.33-14.8L216.33-14.8 216.33-13 216.88-1.25 210.18 0 210.78-12.15Q210.58-18.85 209.68-24.15ZM242.52-12.65Q242.52-16.1 241.92-17.25 241.32-18.4 239.12-18.4 236.92-18.4 234.12-16.65L234.12-16.65 234.12-13 234.67-1.25 227.97 0 228.57-12.15Q228.37-18.85 227.47-24.15L227.47-24.15 233.52-25.45Q233.87-22.55 234.02-19.8L234.02-19.8Q234.77-20.8 235.72-21.78 236.67-22.75 238.72-23.98 240.77-25.2 242.87-25.2 244.97-25.2 246.42-23.85 247.87-22.5 248.27-20.15L248.27-20.15Q252.42-25.2 256.67-25.2L256.67-25.2Q259.32-25.2 260.87-23.43 262.42-21.65 262.42-18.6L262.42-18.6 262.12-13 262.67-1 255.92 0.25 256.52-12.65Q256.52-16.1 255.92-17.25 255.32-18.4 253.17-18.4 251.02-18.4 248.32-16.75L248.32-16.75 248.12-13 248.67-1 241.92 0.25 242.52-12.65ZM273.17 0Q270.22 0 268.35-1.88 266.47-3.75 266.47-6.93 266.47-10.1 269.37-12.43 272.27-14.75 276.42-14.75L276.42-14.75 279.82-14.75 279.82-15.6Q279.82-18.05 278.82-18.95 277.82-19.85 275.07-19.85L275.07-19.85Q273.92-19.85 272.35-19.38 270.77-18.9 268.82-17.9L268.82-17.9 267.37-21.85Q269.52-23.35 272.6-24.55 275.67-25.75 277.67-25.75L277.67-25.75Q285.52-25.75 285.52-18.15L285.52-18.15 285.52-8.35Q285.52-5.55 287.27-2.1L287.27-2.1 281.97 0.15Q280.72-2.25 280.12-4.15L280.12-4.15Q277.37 0 273.17 0L273.17 0ZM275.27-5.1L275.27-5.1Q277.27-5.1 279.82-7.15L279.82-7.15 279.82-10.5Q277.17-11.1 275.52-11.1L275.52-11.1Q272.37-11.1 272.37-8.3L272.37-8.3Q272.37-6.85 273.17-5.98 273.97-5.1 275.27-5.1ZM306.12-12.65Q306.12-16.1 305.52-17.25 304.92-18.4 302.72-18.4 300.52-18.4 297.72-16.65L297.72-16.65 297.72-13 298.27-1.25 291.57 0 292.17-12.15Q291.97-18.85 291.07-24.15L291.07-24.15 297.12-25.45Q297.47-22.55 297.62-19.8L297.62-19.8Q298.37-20.8 299.32-21.78 300.27-22.75 302.32-23.98 304.37-25.2 306.64-25.2 308.92-25.2 310.47-23.43 312.02-21.65 312.02-18.6L312.02-18.6 311.72-13 312.27-1 305.52 0.25 306.12-12.65ZM332.26-12.65Q332.26-16.1 331.67-17.25 331.06-18.4 328.87-18.4 326.67-18.4 323.87-16.65L323.87-16.65 323.87-13 324.42-1.25 317.72 0 318.31-12.15Q318.12-18.85 317.22-24.15L317.22-24.15 323.26-25.45Q323.62-22.55 323.76-19.8L323.76-19.8Q324.51-20.8 325.47-21.78 326.42-22.75 328.47-23.98 330.51-25.2 332.79-25.2 335.06-25.2 336.62-23.43 338.17-21.65 338.17-18.6L338.17-18.6 337.87-13 338.42-1 331.67 0.25 332.26-12.65Z" opacity="1" transform="matrix(1,0,0,1,0,0)" fill="black" class="wordmark-text-0" id="SvgjsPath3552" stroke-width="5" stroke="black" stroke-linejoin="round"></path></svg></g></svg></g></svg></g></svg></g><g></g></svg></g></svg></g></svg></g></mask><g mask="url(#7b442556-e310-4e22-a5d8-1052a7237ac6)"><g><path d="M101.013 245.952v0c-30.015 0-54.188-10.081-72.518-30.244-18.33-20.163-27.495-46.856-27.495-80.079v0c0-37.805 11.456-69.654 34.369-95.545 22.912-25.891 51.095-38.836 84.546-38.836v0c13.289 0 25.616 1.214 36.981 3.643 11.319 2.383 19.384 4.835 24.195 7.355v0l6.874 3.78-19.934 47.773c-6.874-4.582-16.153-8.89-27.838-12.923-11.685-3.987-21.996-5.98-30.932-5.98v0c-18.559 0-33.452 6.53-44.679 19.59-11.227 13.06-16.841 30.359-16.841 51.897v0c0 29.099 5.339 51.782 16.016 68.049 10.631 16.268 25.456 24.402 44.473 24.402v0c12.373 0 24.058-1.718 35.056-5.155v0-53.272h-44.336l3.437-34.712h82.485l-3.093 56.021 2.405 59.458c-33.681 9.852-61.405 14.778-83.171 14.778zM236.768 5.028h74.58c21.996 0 39.409 4.972 52.24 14.916 12.831 9.99 19.246 23.348 19.247 40.074v0c0 26.807-10.998 45.481-32.994 56.021v0c29.786 10.311 44.679 29.328 44.679 57.052v0c0 20.85-8.936 38.195-26.807 52.034-17.872 13.885-40.326 20.827-67.363 20.827v0c-14.206 0-35.4-1.26-63.582-3.78v0l4.125-83.516zM306.88 140.097v0h-27.838l-0.344 12.716 2.406 56.021c13.289 1.146 23.485 1.718 30.588 1.718v0c12.144 0 21.606-3.047 28.388-9.142 6.736-6.049 10.104-14.916 10.105-26.601 0-11.685-3.437-20.392-10.311-26.12-6.874-5.728-17.872-8.592-32.994-8.592zM298.975 39.741v0h-16.84l-2.062 67.018h22.339c11.685 0 20.621-3.162 26.808-9.485 6.186-6.278 9.28-15.26 9.279-26.945v0c0-20.392-13.175-30.588-39.524-30.588z" fill="#ffffff" fill-rule="nonzero" stroke="none" stroke-width="1" stroke-linecap="butt" stroke-linejoin="miter" stroke-miterlimit="10" stroke-dasharray="" stroke-dashoffset="0" font-family="none" font-weight="none" font-size="none" text-anchor="none" style="mix-blend-mode: normal" data-fill-palette-color="tertiary"></path></g></g><g transform="matrix(1,0,0,1,0,98.00889018862406)"><svg viewBox="0 0 395.52 51.18221962275185" height="51.18221962275185" width="395.52"><g><svg viewBox="0 0 395.52 51.18221962275185" height="51.18221962275185" width="395.52"><g><svg viewBox="0 0 395.52 51.18221962275185" height="51.18221962275185" width="395.52"><g><svg viewBox="0 0 395.52 51.18221962275185" height="51.18221962275185" width="395.52"><g id="textblocktransform"><svg viewBox="0 0 395.52 51.18221962275185" height="51.18221962275185" width="395.52" id="textblock"><g><svg viewBox="0 0 395.52 51.18221962275185" height="51.18221962275185" width="395.52"><g transform="matrix(1,0,0,1,0,0)"><svg width="395.52" viewBox="-1.5 -41.7 342.92 45.25" height="51.18221962275185" data-palette-color="#ffffff"><path d="M16.05 0.55L16.05 0.55Q9.5 0.55 5.5-3.85 1.5-8.25 1.5-15.5L1.5-15.5Q1.5-23.75 6.5-29.4 11.5-35.05 18.8-35.05L18.8-35.05Q21.7-35.05 24.18-34.52 26.65-34 27.7-33.45L27.7-33.45 28.7-32.9 25.8-25.95Q24.3-26.95 21.75-27.83 19.2-28.7 17.25-28.7L17.25-28.7Q13.2-28.7 10.75-25.85 8.3-23 8.3-18.3L8.3-18.3Q8.3-11.95 10.63-8.4 12.95-4.85 17.1-4.85L17.1-4.85Q19.8-4.85 22.2-5.6L22.2-5.6 22.2-13.35 15.75-13.35 16.25-18.4 28.25-18.4 27.8-10.25 28.15-1.6Q20.8 0.55 16.05 0.55ZM39.7 0Q36.75 0 34.87-1.88 33-3.75 33-6.93 33-10.1 35.9-12.43 38.8-14.75 42.95-14.75L42.95-14.75 46.35-14.75 46.35-15.6Q46.35-18.05 45.35-18.95 44.35-19.85 41.6-19.85L41.6-19.85Q40.45-19.85 38.87-19.38 37.3-18.9 35.35-17.9L35.35-17.9 33.9-21.85Q36.05-23.35 39.12-24.55 42.2-25.75 44.2-25.75L44.2-25.75Q52.05-25.75 52.05-18.15L52.05-18.15 52.05-8.35Q52.05-5.55 53.8-2.1L53.8-2.1 48.5 0.15Q47.25-2.25 46.65-4.15L46.65-4.15Q43.9 0 39.7 0L39.7 0ZM41.8-5.1L41.8-5.1Q43.8-5.1 46.35-7.15L46.35-7.15 46.35-10.5Q43.7-11.1 42.05-11.1L42.05-11.1Q38.9-11.1 38.9-8.3L38.9-8.3Q38.9-6.85 39.7-5.98 40.5-5.1 41.8-5.1ZM71.4-25.25L71.4-25.25Q74.75-25.25 76.84-22.35 78.95-19.45 78.95-14.9L78.95-14.9Q78.95-8.35 75.52-4.17 72.09 0 66.65 0L66.65 0Q64.15 0 58.25-0.8L58.25-0.8 58.75-12.15 58.15-37.45 65-38.7 64.34-25.8 64.34-20.4Q64.9-21.2 65.7-22.1 66.5-23 68.2-24.13 69.9-25.25 71.4-25.25ZM69.45-18.75L69.45-18.75Q67.15-18.75 64.34-17.35L64.34-17.35 64.34-13 64.65-5.65Q66.75-5.4 68.59-5.4L68.59-5.4Q73.4-5.4 73.4-12.08 73.4-18.75 69.45-18.75ZM82.54-24.15L82.54-24.15 88.59-25.45Q89.04-21.6 89.19-18.15L89.19-18.15Q93.74-25.2 97.74-25.2L97.74-25.2 97.19-17.4Q94.29-17.4 92.62-16.88 90.94-16.35 89.19-14.8L89.19-14.8 89.19-13 89.74-1.25 83.04 0 83.64-12.15Q83.44-18.85 82.54-24.15ZM100.89-24.2L107.59-25.45 106.99-13 107.54-1.25 100.84 0 101.44-12.15 100.89-24.2ZM100.54-32.77Q100.54-34.45 101.84-35.77 103.14-37.1 104.84-37.1 106.54-37.1 107.44-36.18 108.34-35.25 108.34-33.4 108.34-31.55 107.07-30.23 105.79-28.9 104.12-28.9 102.44-28.9 101.49-30 100.54-31.1 100.54-32.77ZM122.09-5.1L122.09-5.1Q123.54-5.1 125.14-5.85 126.74-6.6 127.64-7.35L127.64-7.35 128.54-8.1 130.84-5.3Q130.34-4.45 129.29-3.35 128.24-2.25 127.16-1.48 126.09-0.7 124.31-0.08 122.54 0.55 120.64 0.55L120.64 0.55Q116.59 0.55 114.04-2.53 111.49-5.6 111.49-10.45L111.49-10.45Q111.49-16.55 115.04-21.15 118.59-25.75 123.34-25.75L123.34-25.75Q126.99-25.75 129.01-23.7 131.04-21.65 131.04-17.95L131.04-17.95Q131.04-15.75 130.29-12.95L130.29-12.95 129.29-11.9 116.79-10.75Q117.64-5.1 122.09-5.1ZM122.09-20.6L122.09-20.6Q119.89-20.6 118.39-18.82 116.89-17.05 116.64-14.3L116.64-14.3 125.14-15.35Q125.29-16.5 125.29-17.25L125.29-17.25Q125.29-20.6 122.09-20.6ZM135.39-37.45L142.24-38.7 141.59-13 142.14-1.25 135.39 0 135.99-12.15 135.39-37.45ZM156.83-34.5L167.68-34.5Q172.48-34.5 175.28-32.33 178.08-30.15 178.08-26.5L178.08-26.5Q178.08-20.65 173.28-18.35L173.28-18.35Q179.78-16.1 179.78-10.05L179.78-10.05Q179.78-5.5 175.88-2.48 171.98 0.55 166.08 0.55L166.08 0.55Q162.98 0.55 156.83 0L156.83 0 157.43-12.15 156.83-34.5ZM167.03-14.85L167.03-14.85 162.98-14.85 162.93-13 163.28-4.85Q166.18-4.6 167.73-4.6L167.73-4.6Q170.38-4.6 171.86-5.93 173.33-7.25 173.33-9.8 173.33-12.35 171.83-13.6 170.33-14.85 167.03-14.85ZM165.88-29.45L165.88-29.45 163.43-29.45 163.13-19.7 166.38-19.7Q168.93-19.7 170.28-21.08 171.63-22.45 171.63-25L171.63-25Q171.63-29.45 165.88-29.45ZM190.73 0L190.73 0Q188.03 0 186.35-1.78 184.68-3.55 184.68-6.45L184.68-6.45 184.98-12.2 184.43-24.2 191.13-25.45 190.48-10.25Q190.48-8.1 191.25-7.1 192.03-6.1 193.73-6.1 195.43-6.1 198.43-7.8L198.43-7.8 198.43-10.8 197.88-23.95 204.63-25.2 204.03-12.7 204.08-8.6Q204.08-5.4 205.73-2.15L205.73-2.15 200.53 0.15Q198.88-3.1 198.53-5.05L198.53-5.05Q194.03 0 190.73 0ZM209.68-24.15L209.68-24.15 215.73-25.45Q216.18-21.6 216.33-18.15L216.33-18.15Q220.88-25.2 224.88-25.2L224.88-25.2 224.33-17.4Q221.43-17.4 219.75-16.88 218.08-16.35 216.33-14.8L216.33-14.8 216.33-13 216.88-1.25 210.18 0 210.78-12.15Q210.58-18.85 209.68-24.15ZM242.52-12.65Q242.52-16.1 241.92-17.25 241.32-18.4 239.12-18.4 236.92-18.4 234.12-16.65L234.12-16.65 234.12-13 234.67-1.25 227.97 0 228.57-12.15Q228.37-18.85 227.47-24.15L227.47-24.15 233.52-25.45Q233.87-22.55 234.02-19.8L234.02-19.8Q234.77-20.8 235.72-21.78 236.67-22.75 238.72-23.98 240.77-25.2 242.87-25.2 244.97-25.2 246.42-23.85 247.87-22.5 248.27-20.15L248.27-20.15Q252.42-25.2 256.67-25.2L256.67-25.2Q259.32-25.2 260.87-23.43 262.42-21.65 262.42-18.6L262.42-18.6 262.12-13 262.67-1 255.92 0.25 256.52-12.65Q256.52-16.1 255.92-17.25 255.32-18.4 253.17-18.4 251.02-18.4 248.32-16.75L248.32-16.75 248.12-13 248.67-1 241.92 0.25 242.52-12.65ZM273.17 0Q270.22 0 268.35-1.88 266.47-3.75 266.47-6.93 266.47-10.1 269.37-12.43 272.27-14.75 276.42-14.75L276.42-14.75 279.82-14.75 279.82-15.6Q279.82-18.05 278.82-18.95 277.82-19.85 275.07-19.85L275.07-19.85Q273.92-19.85 272.35-19.38 270.77-18.9 268.82-17.9L268.82-17.9 267.37-21.85Q269.52-23.35 272.6-24.55 275.67-25.75 277.67-25.75L277.67-25.75Q285.52-25.75 285.52-18.15L285.52-18.15 285.52-8.35Q285.52-5.55 287.27-2.1L287.27-2.1 281.97 0.15Q280.72-2.25 280.12-4.15L280.12-4.15Q277.37 0 273.17 0L273.17 0ZM275.27-5.1L275.27-5.1Q277.27-5.1 279.82-7.15L279.82-7.15 279.82-10.5Q277.17-11.1 275.52-11.1L275.52-11.1Q272.37-11.1 272.37-8.3L272.37-8.3Q272.37-6.85 273.17-5.98 273.97-5.1 275.27-5.1ZM306.12-12.65Q306.12-16.1 305.52-17.25 304.92-18.4 302.72-18.4 300.52-18.4 297.72-16.65L297.72-16.65 297.72-13 298.27-1.25 291.57 0 292.17-12.15Q291.97-18.85 291.07-24.15L291.07-24.15 297.12-25.45Q297.47-22.55 297.62-19.8L297.62-19.8Q298.37-20.8 299.32-21.78 300.27-22.75 302.32-23.98 304.37-25.2 306.64-25.2 308.92-25.2 310.47-23.43 312.02-21.65 312.02-18.6L312.02-18.6 311.72-13 312.27-1 305.52 0.25 306.12-12.65ZM332.26-12.65Q332.26-16.1 331.67-17.25 331.06-18.4 328.87-18.4 326.67-18.4 323.87-16.65L323.87-16.65 323.87-13 324.42-1.25 317.72 0 318.31-12.15Q318.12-18.85 317.22-24.15L317.22-24.15 323.26-25.45Q323.62-22.55 323.76-19.8L323.76-19.8Q324.51-20.8 325.47-21.78 326.42-22.75 328.47-23.98 330.51-25.2 332.79-25.2 335.06-25.2 336.62-23.43 338.17-21.65 338.17-18.6L338.17-18.6 337.87-13 338.42-1 331.67 0.25 332.26-12.65Z" opacity="1" transform="matrix(1,0,0,1,0,0)" fill="#ffffff" class="wordmark-text-0" data-fill-palette-color="primary" id="text-0"></path></svg></g></svg></g></svg></g></svg></g><g></g></svg></g></svg></g></svg></g></svg></g><defs></defs></svg><rect width="395.52" height="247.2" fill="none" stroke="none" visibility="hidden"></rect></g></svg></g></svg>